<mxfile host="app.diagrams.net" modified="2021-03-16T22:06:56.615Z" agent="5.0 (Windows NT 10.0; Win64; x64) AppleWebKit/537.36 (KHTML, like Gecko) Chrome/89.0.4389.82 Safari/537.36" etag="qzdK9MZqfjeYn-35k0vp" version="14.4.8" type="github">
  <diagram id="C5RBs43oDa-KdzZeNtuy" name="Page-1">
    <mxGraphModel dx="1185" dy="635" grid="1" gridSize="10" guides="1" tooltips="1" connect="1" arrows="1" fold="1" page="1" pageScale="1" pageWidth="827" pageHeight="1169" math="0" shadow="0">
      <root>
        <mxCell id="WIyWlLk6GJQsqaUBKTNV-0" />
        <mxCell id="WIyWlLk6GJQsqaUBKTNV-1" parent="WIyWlLk6GJQsqaUBKTNV-0" />
        <mxCell id="WIyWlLk6GJQsqaUBKTNV-2" value="" style="rounded=0;html=1;jettySize=auto;orthogonalLoop=1;fontSize=11;endArrow=block;endFill=0;endSize=8;strokeWidth=1;shadow=0;labelBackgroundColor=none;edgeStyle=orthogonalEdgeStyle;" parent="WIyWlLk6GJQsqaUBKTNV-1" source="WIyWlLk6GJQsqaUBKTNV-3" target="WIyWlLk6GJQsqaUBKTNV-6" edge="1">
          <mxGeometry relative="1" as="geometry" />
        </mxCell>
        <mxCell id="WIyWlLk6GJQsqaUBKTNV-3" value="Application Login" style="rounded=1;whiteSpace=wrap;html=1;fontSize=12;glass=0;strokeWidth=1;shadow=0;fillColor=#d5e8d4;strokeColor=#82b366;" parent="WIyWlLk6GJQsqaUBKTNV-1" vertex="1">
          <mxGeometry x="340" y="210" width="120" height="40" as="geometry" />
        </mxCell>
        <mxCell id="WIyWlLk6GJQsqaUBKTNV-6" value="State Machine" style="rhombus;whiteSpace=wrap;html=1;shadow=0;fontFamily=Helvetica;fontSize=12;align=center;strokeWidth=1;spacing=6;spacingTop=-4;fillColor=#e1d5e7;strokeColor=#9673a6;" parent="WIyWlLk6GJQsqaUBKTNV-1" vertex="1">
          <mxGeometry x="350" y="300" width="100" height="80" as="geometry" />
        </mxCell>
        <mxCell id="avuWmRSpKhKBCboV4WBJ-0" value="" style="endArrow=classic;html=1;exitX=0;exitY=0.5;exitDx=0;exitDy=0;" edge="1" parent="WIyWlLk6GJQsqaUBKTNV-1" source="WIyWlLk6GJQsqaUBKTNV-6">
          <mxGeometry width="50" height="50" relative="1" as="geometry">
            <mxPoint x="340" y="350" as="sourcePoint" />
            <mxPoint x="240" y="370" as="targetPoint" />
          </mxGeometry>
        </mxCell>
        <mxCell id="avuWmRSpKhKBCboV4WBJ-1" value="" style="endArrow=classic;html=1;" edge="1" parent="WIyWlLk6GJQsqaUBKTNV-1">
          <mxGeometry width="50" height="50" relative="1" as="geometry">
            <mxPoint x="400" y="380" as="sourcePoint" />
            <mxPoint x="400" y="460" as="targetPoint" />
          </mxGeometry>
        </mxCell>
        <mxCell id="avuWmRSpKhKBCboV4WBJ-3" value="" style="endArrow=classic;html=1;exitX=1;exitY=0.5;exitDx=0;exitDy=0;" edge="1" parent="WIyWlLk6GJQsqaUBKTNV-1" source="WIyWlLk6GJQsqaUBKTNV-6">
          <mxGeometry width="50" height="50" relative="1" as="geometry">
            <mxPoint x="560" y="350" as="sourcePoint" />
            <mxPoint x="560" y="370" as="targetPoint" />
            <Array as="points" />
          </mxGeometry>
        </mxCell>
        <mxCell id="avuWmRSpKhKBCboV4WBJ-5" value="User Login State" style="text;html=1;strokeColor=none;fillColor=none;align=center;verticalAlign=middle;whiteSpace=wrap;rounded=0;" vertex="1" parent="WIyWlLk6GJQsqaUBKTNV-1">
          <mxGeometry x="250" y="320" width="70" height="20" as="geometry" />
        </mxCell>
        <mxCell id="avuWmRSpKhKBCboV4WBJ-6" value="Admin Login State" style="text;html=1;strokeColor=none;fillColor=none;align=center;verticalAlign=middle;whiteSpace=wrap;rounded=0;" vertex="1" parent="WIyWlLk6GJQsqaUBKTNV-1">
          <mxGeometry x="480" y="320" width="70" height="20" as="geometry" />
        </mxCell>
        <mxCell id="avuWmRSpKhKBCboV4WBJ-7" value="Moderator Login State" style="text;html=1;strokeColor=none;fillColor=none;align=center;verticalAlign=middle;whiteSpace=wrap;rounded=0;" vertex="1" parent="WIyWlLk6GJQsqaUBKTNV-1">
          <mxGeometry x="410" y="410" width="70" height="20" as="geometry" />
        </mxCell>
        <mxCell id="avuWmRSpKhKBCboV4WBJ-8" value="User GUI" style="rounded=1;whiteSpace=wrap;html=1;fillColor=#dae8fc;strokeColor=#6c8ebf;" vertex="1" parent="WIyWlLk6GJQsqaUBKTNV-1">
          <mxGeometry x="150" y="370" width="90" height="40" as="geometry" />
        </mxCell>
        <mxCell id="avuWmRSpKhKBCboV4WBJ-9" value="Mod GUI" style="rounded=1;whiteSpace=wrap;html=1;fillColor=#dae8fc;strokeColor=#6c8ebf;" vertex="1" parent="WIyWlLk6GJQsqaUBKTNV-1">
          <mxGeometry x="355" y="460" width="90" height="40" as="geometry" />
        </mxCell>
        <mxCell id="avuWmRSpKhKBCboV4WBJ-10" value="Admin GUI" style="rounded=1;whiteSpace=wrap;html=1;fillColor=#dae8fc;strokeColor=#6c8ebf;" vertex="1" parent="WIyWlLk6GJQsqaUBKTNV-1">
          <mxGeometry x="560" y="370" width="90" height="40" as="geometry" />
        </mxCell>
        <mxCell id="avuWmRSpKhKBCboV4WBJ-11" value="" style="endArrow=classic;html=1;" edge="1" parent="WIyWlLk6GJQsqaUBKTNV-1" target="avuWmRSpKhKBCboV4WBJ-12">
          <mxGeometry width="50" height="50" relative="1" as="geometry">
            <mxPoint x="400" y="290" as="sourcePoint" />
            <mxPoint x="690" y="258" as="targetPoint" />
            <Array as="points">
              <mxPoint x="400" y="260" />
            </Array>
          </mxGeometry>
        </mxCell>
        <mxCell id="avuWmRSpKhKBCboV4WBJ-12" value="Faulty Login" style="rounded=1;whiteSpace=wrap;html=1;fillColor=#f8cecc;strokeColor=#b85450;" vertex="1" parent="WIyWlLk6GJQsqaUBKTNV-1">
          <mxGeometry x="690" y="240" width="80" height="30" as="geometry" />
        </mxCell>
        <mxCell id="avuWmRSpKhKBCboV4WBJ-13" value="Credentials DNE" style="text;html=1;strokeColor=none;fillColor=none;align=center;verticalAlign=middle;whiteSpace=wrap;rounded=0;" vertex="1" parent="WIyWlLk6GJQsqaUBKTNV-1">
          <mxGeometry x="570" y="230" width="40" height="20" as="geometry" />
        </mxCell>
        <mxCell id="avuWmRSpKhKBCboV4WBJ-14" value="Menu Class&lt;br&gt;------------------------&lt;br&gt;if (user) {&lt;br&gt;draw(userGUI);&lt;br&gt;}&lt;br&gt;if (mod) {&lt;br&gt;draw(modGUI);&lt;br&gt;}&lt;br&gt;if(admin) {&lt;br&gt;draw(adminGUI);&lt;br&gt;}" style="rounded=1;whiteSpace=wrap;html=1;fillColor=#dae8fc;strokeColor=#6c8ebf;" vertex="1" parent="WIyWlLk6GJQsqaUBKTNV-1">
          <mxGeometry x="199" y="560" width="156" height="160" as="geometry" />
        </mxCell>
        <mxCell id="avuWmRSpKhKBCboV4WBJ-15" value="User Account Object" style="rounded=1;whiteSpace=wrap;html=1;fillColor=#d5e8d4;strokeColor=#82b366;" vertex="1" parent="WIyWlLk6GJQsqaUBKTNV-1">
          <mxGeometry x="25" y="560" width="110" height="40" as="geometry" />
        </mxCell>
        <mxCell id="avuWmRSpKhKBCboV4WBJ-16" value="" style="endArrow=diamond;html=1;endFill=0;" edge="1" parent="WIyWlLk6GJQsqaUBKTNV-1" target="avuWmRSpKhKBCboV4WBJ-15">
          <mxGeometry width="50" height="50" relative="1" as="geometry">
            <mxPoint x="80" y="690" as="sourcePoint" />
            <mxPoint x="79" y="603" as="targetPoint" />
          </mxGeometry>
        </mxCell>
        <mxCell id="avuWmRSpKhKBCboV4WBJ-18" value="Account Credential (auto user)" style="rounded=1;whiteSpace=wrap;html=1;fillColor=#d5e8d4;strokeColor=#82b366;" vertex="1" parent="WIyWlLk6GJQsqaUBKTNV-1">
          <mxGeometry x="20" y="680" width="110" height="40" as="geometry" />
        </mxCell>
        <mxCell id="avuWmRSpKhKBCboV4WBJ-19" value="Should there be a master admin to promote accounts to admin / mod?" style="rounded=1;whiteSpace=wrap;html=1;fillColor=#f5f5f5;strokeColor=#666666;gradientColor=#b3b3b3;" vertex="1" parent="WIyWlLk6GJQsqaUBKTNV-1">
          <mxGeometry x="20" y="750" width="120" height="70" as="geometry" />
        </mxCell>
        <mxCell id="avuWmRSpKhKBCboV4WBJ-21" value="With auto user assignment I&#39;m not sure how the &quot;first admin&quot; will exist as of yet." style="rounded=1;whiteSpace=wrap;html=1;fillColor=#f5f5f5;strokeColor=#666666;gradientColor=#b3b3b3;" vertex="1" parent="WIyWlLk6GJQsqaUBKTNV-1">
          <mxGeometry x="20" y="920" width="120" height="70" as="geometry" />
        </mxCell>
        <mxCell id="avuWmRSpKhKBCboV4WBJ-22" value="Basically a hard coded account with admin privileges." style="rounded=1;whiteSpace=wrap;html=1;fillColor=#f5f5f5;strokeColor=#666666;gradientColor=#b3b3b3;" vertex="1" parent="WIyWlLk6GJQsqaUBKTNV-1">
          <mxGeometry x="20" y="830" width="120" height="70" as="geometry" />
        </mxCell>
        <mxCell id="avuWmRSpKhKBCboV4WBJ-24" value="A direct call to the application may lead to unwanted immediate changes across instances.&lt;br&gt;&lt;br&gt;A handler class and approval method may remedy this, but I am going to test some ideas." style="rounded=1;whiteSpace=wrap;html=1;fillColor=#f5f5f5;strokeColor=#666666;gradientColor=#b3b3b3;" vertex="1" parent="WIyWlLk6GJQsqaUBKTNV-1">
          <mxGeometry x="199" y="950" width="156" height="180" as="geometry" />
        </mxCell>
        <mxCell id="avuWmRSpKhKBCboV4WBJ-25" value="Interact with components&lt;br&gt;----------------------------------&lt;br&gt;if (interacted()) {&lt;br&gt;&lt;u style=&quot;font-weight: bold ; font-style: italic&quot;&gt;something.&lt;/u&gt;do();&lt;br&gt;}" style="rounded=1;whiteSpace=wrap;html=1;fillColor=#dae8fc;strokeColor=#6c8ebf;" vertex="1" parent="WIyWlLk6GJQsqaUBKTNV-1">
          <mxGeometry x="199" y="740" width="156" height="150" as="geometry" />
        </mxCell>
        <mxCell id="avuWmRSpKhKBCboV4WBJ-26" value="" style="endArrow=classic;html=1;exitX=0.5;exitY=1;exitDx=0;exitDy=0;" edge="1" parent="WIyWlLk6GJQsqaUBKTNV-1" source="avuWmRSpKhKBCboV4WBJ-25" target="avuWmRSpKhKBCboV4WBJ-24">
          <mxGeometry width="50" height="50" relative="1" as="geometry">
            <mxPoint x="420" y="930" as="sourcePoint" />
            <mxPoint x="442" y="940" as="targetPoint" />
          </mxGeometry>
        </mxCell>
        <mxCell id="avuWmRSpKhKBCboV4WBJ-27" value="Application Object" style="rounded=1;whiteSpace=wrap;html=1;gradientColor=#ffd966;fillColor=#fff2cc;strokeColor=#d6b656;" vertex="1" parent="WIyWlLk6GJQsqaUBKTNV-1">
          <mxGeometry x="190" y="30" width="120" height="60" as="geometry" />
        </mxCell>
        <mxCell id="avuWmRSpKhKBCboV4WBJ-29" style="edgeStyle=none;rounded=0;orthogonalLoop=1;jettySize=auto;html=1;exitX=0.5;exitY=1;exitDx=0;exitDy=0;endArrow=diamond;endFill=0;" edge="1" parent="WIyWlLk6GJQsqaUBKTNV-1">
          <mxGeometry relative="1" as="geometry">
            <mxPoint x="730" y="270" as="sourcePoint" />
            <mxPoint x="730" y="270" as="targetPoint" />
          </mxGeometry>
        </mxCell>
        <mxCell id="avuWmRSpKhKBCboV4WBJ-30" value="Window" style="rounded=1;whiteSpace=wrap;html=1;gradientColor=#ffd966;fillColor=#fff2cc;strokeColor=#d6b656;" vertex="1" parent="WIyWlLk6GJQsqaUBKTNV-1">
          <mxGeometry x="480" y="30" width="120" height="60" as="geometry" />
        </mxCell>
        <mxCell id="avuWmRSpKhKBCboV4WBJ-33" value="" style="endArrow=classic;html=1;exitX=1;exitY=0.25;exitDx=0;exitDy=0;entryX=0;entryY=0.25;entryDx=0;entryDy=0;" edge="1" parent="WIyWlLk6GJQsqaUBKTNV-1" source="avuWmRSpKhKBCboV4WBJ-27" target="avuWmRSpKhKBCboV4WBJ-30">
          <mxGeometry width="50" height="50" relative="1" as="geometry">
            <mxPoint x="370" y="80" as="sourcePoint" />
            <mxPoint x="420" y="30" as="targetPoint" />
          </mxGeometry>
        </mxCell>
        <mxCell id="avuWmRSpKhKBCboV4WBJ-35" value="Exists within" style="text;html=1;strokeColor=none;fillColor=none;align=center;verticalAlign=middle;whiteSpace=wrap;rounded=0;" vertex="1" parent="WIyWlLk6GJQsqaUBKTNV-1">
          <mxGeometry x="365" y="20" width="70" height="20" as="geometry" />
        </mxCell>
        <mxCell id="avuWmRSpKhKBCboV4WBJ-37" value="" style="endArrow=classic;html=1;exitX=0.5;exitY=1;exitDx=0;exitDy=0;entryX=0.5;entryY=0;entryDx=0;entryDy=0;" edge="1" parent="WIyWlLk6GJQsqaUBKTNV-1" source="avuWmRSpKhKBCboV4WBJ-27" target="WIyWlLk6GJQsqaUBKTNV-3">
          <mxGeometry width="50" height="50" relative="1" as="geometry">
            <mxPoint x="350" y="150" as="sourcePoint" />
            <mxPoint x="400" y="100" as="targetPoint" />
          </mxGeometry>
        </mxCell>
        <mxCell id="avuWmRSpKhKBCboV4WBJ-38" value="Can use frame.add() to create instance of application within window." style="rounded=1;whiteSpace=wrap;html=1;fillColor=#f5f5f5;strokeColor=#666666;gradientColor=#b3b3b3;" vertex="1" parent="WIyWlLk6GJQsqaUBKTNV-1">
          <mxGeometry x="640" y="25" width="150" height="70" as="geometry" />
        </mxCell>
        <mxCell id="avuWmRSpKhKBCboV4WBJ-39" value="From each login type&#39;s GUI we can continue to either deepen the states, create more state machines, or another solution." style="rounded=1;whiteSpace=wrap;html=1;fillColor=#dae8fc;strokeColor=#6c8ebf;" vertex="1" parent="WIyWlLk6GJQsqaUBKTNV-1">
          <mxGeometry x="404" y="560" width="156" height="160" as="geometry" />
        </mxCell>
        <mxCell id="avuWmRSpKhKBCboV4WBJ-40" value="For a first commit, I think this should be sufficient for getting a very basic skeleton going. Feel free to ask questions, leave comments, etc.&lt;br&gt;&lt;br&gt;I can always share some of the original code that I adapted this from for further clarity. The only reason I haven&#39;t yet is because I don&#39;t want it to interfere with the understanding / interpretation, because we may make something more efficient while using a similar framework." style="rounded=1;whiteSpace=wrap;html=1;fillColor=#f5f5f5;strokeColor=#666666;gradientColor=#b3b3b3;" vertex="1" parent="WIyWlLk6GJQsqaUBKTNV-1">
          <mxGeometry x="600" y="840" width="196" height="240" as="geometry" />
        </mxCell>
      </root>
    </mxGraphModel>
  </diagram>
</mxfile>
